<svg width="183" height="188" viewBox="0 0 183 188" fill="none" xmlns="http://www.w3.org/2000/svg">
<path fill-rule="evenodd" clip-rule="evenodd" d="M161.829 93.9266C161.829 97.1201 161.547 100.126 161.172 103.131L180.99 118.629C182.775 120.038 183.245 122.574 182.117 124.641L163.332 157.139C162.487 158.642 160.89 159.487 159.293 159.487C158.73 159.487 158.166 159.393 157.603 159.206L134.215 149.813C129.331 153.476 124.071 156.67 118.341 159.018L114.772 183.908C114.49 186.163 112.518 187.853 110.17 187.853H72.599C70.2508 187.853 68.2784 186.163 67.9966 183.908L64.4274 159.018C58.6978 156.67 53.438 153.57 48.5538 149.813L25.166 159.206C24.6964 159.393 24.1329 159.487 23.5693 159.487C21.8786 159.487 20.2819 158.642 19.4365 157.139L0.651208 124.641C-0.475911 122.574 -0.00627799 120.038 1.77833 118.629L21.5968 103.131C21.2211 100.126 20.9394 97.0262 20.9394 93.9266C20.9394 90.827 21.2211 87.7274 21.5968 84.7218L1.77833 69.2239C-0.00627799 67.815 -0.569838 65.279 0.651208 63.2126L19.4365 30.714C20.2819 29.2112 21.8786 28.3658 23.4754 28.3658C24.0389 28.3658 24.6025 28.4598 25.166 28.6476L48.5538 38.0403C53.438 34.3771 58.6978 31.1836 64.4274 28.8355L67.9966 3.94492C68.2784 1.69068 70.2508 0 72.599 0H110.17C112.518 0 114.49 1.69068 114.772 3.94492L118.341 28.8355C124.071 31.1836 129.331 34.2832 134.215 38.0403L157.603 28.6476C158.072 28.4598 158.636 28.3658 159.199 28.3658C160.89 28.3658 162.487 29.2112 163.332 30.714L182.117 63.2126C183.245 65.279 182.775 67.815 180.99 69.2239L161.172 84.7218C161.547 87.7274 161.829 90.7331 161.829 93.9266ZM143.044 93.9266C143.044 91.9541 142.95 89.9817 142.574 87.07L141.259 76.4562L149.619 69.8814L159.669 61.8976L153.094 50.5325L141.165 55.3228L131.209 59.3616L122.662 52.7867C118.905 49.9689 115.148 47.8086 111.109 46.118L101.153 42.0791L99.6499 31.4654L97.8653 18.7853H84.8095L82.931 31.4654L81.4282 42.0791L71.4719 46.118C67.621 47.7147 63.77 49.9689 59.7311 52.9746L51.2777 59.3616L41.5094 55.4167L29.5807 50.6264L23.0058 61.9916L33.1499 69.8814L41.5094 76.4562L40.1944 87.07C39.9126 89.8877 39.7248 92.0481 39.7248 93.9266C39.7248 95.8051 39.9126 97.9654 40.1944 100.877L41.5094 111.491L33.1499 118.066L23.0058 125.956L29.5807 137.321L41.5094 132.53L51.4656 128.492L60.0129 135.066C63.77 137.884 67.527 140.045 71.5659 141.735L81.5221 145.774L83.0249 156.388L84.8095 169.068H97.9592L99.8378 156.388L101.341 145.774L111.297 141.735C115.148 140.138 118.999 137.884 123.038 134.879L131.491 128.492L141.259 132.437L153.188 137.227L159.763 125.862L149.619 117.972L141.259 111.397L142.574 100.783C142.856 97.9654 143.044 95.899 143.044 93.9266ZM91.3844 56.356C70.6266 56.356 53.8137 73.1688 53.8137 93.9266C53.8137 114.684 70.6266 131.497 91.3844 131.497C112.142 131.497 128.955 114.684 128.955 93.9266C128.955 73.1688 112.142 56.356 91.3844 56.356ZM72.5991 93.9266C72.5991 104.259 81.0524 112.712 91.3844 112.712C101.716 112.712 110.17 104.259 110.17 93.9266C110.17 83.5947 101.716 75.1413 91.3844 75.1413C81.0524 75.1413 72.5991 83.5947 72.5991 93.9266Z" fill="white" fill-opacity="0.8"/>
</svg>
