<svg width="158" height="188" viewBox="0 0 158 188" fill="none" xmlns="http://www.w3.org/2000/svg">
<path fill-rule="evenodd" clip-rule="evenodd" d="M79 0C71.7144 0 65.8333 5.8586 65.8333 13.1163V23.347C38.2711 29.293 17.5556 53.7767 17.5556 83.0697V135.535L0 153.023V161.767H158V153.023L140.444 135.535V83.0697C140.444 53.7767 119.729 29.293 92.1667 23.347V13.1163C92.1667 5.8586 86.2856 0 79 0ZM122.889 83.0697C122.889 58.9358 103.227 39.3488 79 39.3488C54.7733 39.3488 35.1111 58.9358 35.1111 83.0697V144.279H122.889V83.0697ZM79.0001 188C69.3445 188 61.5323 180.218 61.5323 170.599H96.4679C96.4679 180.218 88.6557 188 79.0001 188ZM70.2223 56.8372H87.7778V83.0697H114.111V100.558H87.7778V126.791H70.2223V100.558H43.8889V83.0697H70.2223V56.8372Z" fill="white" fill-opacity="0.8"/>
</svg>
